<?xml version="1.0" standalone="no"?><!DOCTYPE svg PUBLIC "-//W3C//DTD SVG 1.1//EN" "http://www.w3.org/Graphics/SVG/1.1/DTD/svg11.dtd"><svg t="1592553399889" class="icon" viewBox="0 0 1024 1024" version="1.1" xmlns="http://www.w3.org/2000/svg" p-id="6834" width="16" height="16" xmlns:xlink="http://www.w3.org/1999/xlink"><defs><style type="text/css"></style></defs><path d="M512 912c-220.6 0-400-179.4-400-400s179.4-400 400-400 400 179.4 400 400-179.4 400-400 400z m0-704.3c-167.8 0-304.3 136.5-304.3 304.3S344.2 816.3 512 816.3s304.3-136.5 304.3-304.3S679.8 207.7 512 207.7z" fill="#1ABC9C" opacity=".8" p-id="6835"></path><path d="M514.3 734.9c-26.4 0-47.8-21.4-47.8-47.8V336.9c0-26.4 21.4-47.8 47.8-47.8s47.8 21.4 47.8 47.8V687c0 26.5-21.4 47.9-47.8 47.9z" fill="#1ABC9C" opacity=".8" p-id="6836"></path><path d="M510.1 734.9c-12.7 0-25.3-5-34.7-14.9L357.5 595.8c-18.2-19.2-17.4-49.4 1.8-67.6 19.2-18.2 49.4-17.4 67.6 1.8l117.9 124.2c18.2 19.2 17.4 49.4-1.8 67.6a47.9 47.9 0 0 1-32.9 13.1z" fill="#1ABC9C" opacity=".8" p-id="6837"></path><path d="M513.9 734.9a47.9 47.9 0 0 1-32.9-13.1c-19.2-18.2-19.9-48.5-1.8-67.6L597.1 530c18.2-19.2 48.5-19.9 67.6-1.8 19.2 18.2 19.9 48.5 1.8 67.6L548.6 720c-9.4 9.9-22.1 14.9-34.7 14.9z" fill="#1ABC9C" opacity=".8" p-id="6838"></path></svg>