<?xml version="1.0" standalone="no"?><!DOCTYPE svg PUBLIC "-//W3C//DTD SVG 1.1//EN" "http://www.w3.org/Graphics/SVG/1.1/DTD/svg11.dtd"><svg t="1592553313192" class="icon" viewBox="0 0 1024 1024" version="1.1" xmlns="http://www.w3.org/2000/svg" p-id="5235" width="16" height="16" xmlns:xlink="http://www.w3.org/1999/xlink"><defs><style type="text/css"></style></defs><path d="M432 0h160c26.6 0 48 21.4 48 48v336h175.4c35.6 0 53.4 43 28.2 68.2L539.4 756.6c-15 15-39.6 15-54.6 0L180.2 452.2c-25.2-25.2-7.4-68.2 28.2-68.2H384V48c0-26.6 21.4-48 48-48z m592 752v224c0 26.6-21.4 48-48 48H48c-26.6 0-48-21.4-48-48V752c0-26.6 21.4-48 48-48h293.4l98 98c40.2 40.2 105 40.2 145.2 0l98-98H976c26.6 0 48 21.4 48 48z m-248 176c0-22-18-40-40-40s-40 18-40 40 18 40 40 40 40-18 40-40z m128 0c0-22-18-40-40-40s-40 18-40 40 18 40 40 40 40-18 40-40z" p-id="5236" fill="#1ABC9C"></path></svg>