<?xml version="1.0" standalone="no"?><!DOCTYPE svg PUBLIC "-//W3C//DTD SVG 1.1//EN" "http://www.w3.org/Graphics/SVG/1.1/DTD/svg11.dtd"><svg t="1592801956280" class="icon" viewBox="0 0 1024 1024" version="1.1" xmlns="http://www.w3.org/2000/svg" p-id="5262" width="32" height="32" xmlns:xlink="http://www.w3.org/1999/xlink"><defs><style type="text/css"></style></defs><path d="M912 620.8c0 49.4-18.9 116.5-56.8 201.3-0.9 2-2.4 5.7-4.6 10.7-2.2 5-4.2 9.5-6.1 13.4-1.8 3.8-3.7 7.2-5.9 9.9-3.5 5-7.7 7.6-12.5 7.6-4.5 0-8-1.5-10.5-4.5s-3.7-6.7-3.7-11.2c0-2.7 0.4-6.7 1.1-11.8s1.1-8.7 1.1-10.5c1.5-20.3 2.2-38.5 2.2-54.9 0-30.1-2.6-57-7.8-80.9-5.2-23.8-12.4-44.4-21.7-61.9-9.2-17.4-21.1-32.4-35.6-45-14.5-12.7-30.3-23-47.2-31-16.8-8.1-36.7-14.3-59.4-19s-45.7-7.8-68.8-9.6c-23.1-1.8-49.2-2.7-78.3-2.7h-99.9v114.2c0 7.7-2.8 14.4-8.5 20.1-5.7 5.7-12.4 8.5-20.1 8.5s-14.4-2.8-20.1-8.5L120.5 426.6c-5.7-5.7-8.5-12.3-8.5-20.1 0-7.7 2.8-14.4 8.5-20.1L349 157.9c5.7-5.7 12.3-8.5 20.1-8.5 7.7 0 14.4 2.8 20.1 8.5 5.7 5.7 8.5 12.4 8.5 20.1v114.2h100c212.2 0 342.4 60 390.6 179.9 15.8 40 23.7 89.5 23.7 148.7z" p-id="5263" fill="#a5a5a5"></path></svg>